# xmcd
#
# Track frame offsets:
#	150
#	22182
#	46700
#	70487
#	92752
#	111507
#	132127
#	152130
#	176273
#	197656
#	217435
#	242049
#	258904
#	267261
#	273766
#
# Disc length: 3743 seconds
#
# Revision: 1
# Processed by: cddbd v1.5.2PL0 Copyright (c) Steve Scherf et al.
# Submitted via: audiograbber 1.83.01
#
DISCID=dc0e9d0f
DTITLE=Various Artist - Full Tilt 22
DYEAR=2009
DGENRE=remix
TTITLE0=JASON MRAZ - I'M YOURS (76 BPM)
TTITLE1=RIHANNA - REHAB (80 BPM)
TTITLE2=ESTELLE (FEAT SEAN PAUL) - COME OVER (82 BPM)
TTITLE3=KANYE WEST - HEARTLESS (88 BPM)
TTITLE4=BEYONCE - SINGLE LADIES (PUT A RING ON IT) (97 BPM)
TTITLE5=LUDACRIS (FEAT T-PAIN) - ONE MORE DRINK (99 BPM)
TTITLE6=PUSSYCAT DOLLS - I HATE THIS PART (111 BPM)
TTITLE7=LADY GAGA (FEAT COLBY O'DONIS) -  JUST DANCE (119 BPM)
TTITLE8=T-PAIN (FEAT CHRIS BROWN)  - FREEZE (120 BPM)
TTITLE9=COMMON  - UNIVERSAL MIND CONTROL (120.5 BPM)
TTITLE10=KID CUDI - DAY N NITE (130 BPM)
TTITLE11=METRO STATION - SEVENTEEN FOREVER (140 BPM)
TTITLE12=KANYE WEST - HEARTLESS (MINI-MIX) (88 BPM)
TTITLE13=LADY GAGA - JUST DANCE (MINI-MIX) (119 BPM)
TTITLE14=COMMON - UNIVERSAL MIND CONTROL (MINI-MIX) (120.5 BPM)
EXTD=
EXTT0=
EXTT1=
EXTT2=
EXTT3=
EXTT4=
EXTT5=
EXTT6=
EXTT7=
EXTT8=
EXTT9=
EXTT10=
EXTT11=
EXTT12=
EXTT13=
EXTT14=
PLAYORDER=
